<svg width="0" height="0" class="hidden">
  <symbol xmlns="http://www.w3.org/2000/svg" viewBox="0 0 267.874 214.036" id="tent">
    <path d="M3.668 213.523c-1.294-.684-2.724-2.329-3.272-3.764-.385-1.009-.442-1.947-.368-6.06.085-4.735.107-4.899.802-6.081.393-.669 1.137-1.538 1.654-1.932 1.863-1.421 2.254-1.483 9.374-1.483h6.6l.618-.751c.34-.413 1.37-1.812 2.287-3.11a939.93 939.93 0 013.307-4.638c3.817-5.31 9.046-12.568 12.726-17.662 2.17-3.001 6.168-8.553 8.886-12.336a5986.45 5986.45 0 0110.594-14.685A7711.07 7711.07 0 0067.1 126.866c4.219-5.86 12.007-16.65 15.662-21.696 1.901-2.625 9.33-12.946 17.235-23.944 3.294-4.584 6.943-9.644 8.109-11.245 5.745-7.892 13.09-18.167 13.21-18.478.151-.394-.392-1.217-4.751-7.187-1.7-2.328-5.327-7.329-8.059-11.112-2.732-3.784-6.865-9.499-9.183-12.7-5.136-7.092-5.412-7.596-5.412-9.915 0-2.912.705-3.974 4.5-6.791 4.175-3.1 5.51-3.8 7.238-3.798 2.022.002 3.268.447 4.543 1.623 1.02.94 5.115 6.497 16.057 21.791 6.324 8.84 7.341 10.187 7.696 10.187.346 0 2-2.204 10.634-14.175 12.943-17.943 12.744-17.68 14.02-18.472 1.682-1.043 4.28-1.257 5.977-.494 1.46.657 7.423 4.997 8.169 5.945 1.457 1.853 1.746 4.85.672 6.97-.566 1.115-4.303 6.409-11.292 15.992a2692.63 2692.63 0 00-7.056 9.79c-2.978 4.147-6.11 8.488-6.96 9.646-.85 1.159-1.545 2.273-1.545 2.476 0 .317 3.43 5.218 9.638 13.771a9391.643 9391.643 0 0114.174 19.646c2.11 2.932 4.675 6.476 5.7 7.876 2.057 2.807 15.438 21.363 21.106 29.267a7413.878 7413.878 0 0015.61 21.712 9921.5 9921.5 0 0116.798 23.267 7059.474 7059.474 0 0015.097 20.902c2.107 2.91 4.063 5.553 4.347 5.871.5.563.704.582 7.297.662 6.388.077 6.844.116 7.865.662.596.319 1.474 1.024 1.951 1.568 1.616 1.84 1.728 2.353 1.728 7.906 0 4.65-.043 5.107-.572 6.086-.67 1.24-1.99 2.543-3.185 3.145-.776.39-11.737.425-130.175.415-126.275-.012-129.35-.024-130.274-.512zm84.168-22.907a943.73 943.73 0 006.398-8.798 897.445 897.445 0 016.29-8.65 851.274 851.274 0 005.598-7.673c3.964-5.504 13.831-19.086 14.608-20.108.99-1.3 6.733-9.22 9.93-13.692 1.639-2.292 3.09-4.167 3.224-4.167.254 0 2.684 3.224 9.371 12.435 2.166 2.983 5.637 7.75 7.713 10.591 2.076 2.842 5.297 7.277 7.159 9.856 1.861 2.58 6.242 8.621 9.735 13.427 3.492 4.806 8.168 11.26 10.39 14.341 2.222 3.082 4.186 5.696 4.365 5.81.504.32 41.14.268 41.338-.053.159-.257-1.38-2.45-15.119-21.56-11.515-16.018-14.472-20.118-16.984-23.548a492.976 492.976 0 01-4.011-5.557 694.176 694.176 0 00-4.254-5.92 4576.343 4576.343 0 01-7.391-10.228c-4.154-5.764-8.725-12.096-16.802-23.275a3429.98 3429.98 0 01-5.307-7.369c-1.446-2.016-4.713-6.55-7.26-10.076a4290.31 4290.31 0 01-8.544-11.88c-2.153-3.007-4.08-5.467-4.283-5.467-.344 0-3.886 4.745-11.72 15.699a961.594 961.594 0 01-5.187 7.187c-2.292 3.126-14.342 19.82-19.48 26.988a5382.6 5382.6 0 01-7.037 9.79 3461.887 3461.887 0 00-6.178 8.598 978.933 978.933 0 01-4.679 6.483 2463.696 2463.696 0 00-7.543 10.45 5163.565 5163.565 0 01-10.117 14.024c-2.479 3.42-6.562 9.075-9.073 12.567a4298.56 4298.56 0 01-6.824 9.466c-1.242 1.713-2.258 3.29-2.258 3.506 0 .34 2.628.39 20.638.39h20.639z"></path>
  </symbol>
  <symbol xmlns="http://www.w3.org/2000/svg" viewBox="0 0 232.206 231.997" id="user">
    <path d="M109.065 231.956c-.291-.052-2.017-.231-3.836-.4-4.409-.406-7.623-.886-12.491-1.862-5.491-1.101-7.2-1.552-12.998-3.43-11.625-3.767-22.876-9.645-33.02-17.251-5.677-4.258-8.895-7.072-13.738-12.017-10.334-10.548-18.112-22.29-24.075-36.343-6.473-15.255-9.635-33.188-8.765-49.708.765-14.53 3.11-25.418 8.299-38.53 3.364-8.502 10.324-20.639 15.75-27.464 14.655-18.434 32.473-31.19 54.05-38.696 13.743-4.78 27.45-6.728 43.366-6.16 20.118.72 41.046 7.496 58.08 18.808 13.656 9.07 24.266 19.598 32.994 32.741 11.239 16.924 17.323 34.384 19.146 54.942.998 11.254 0 24.698-2.678 36.065-3.433 14.575-10.17 29.31-18.888 41.31-6.994 9.627-15.674 18.348-25.525 25.646-9.364 6.937-20.825 12.912-31.353 16.345-5.502 1.795-8.444 2.625-11.774 3.325-9.725 2.044-14.577 2.577-24.474 2.688-4.148.046-7.779.042-8.07-.01zm14.817-26.181c8.539-.828 14.016-2.001 21.655-4.637 9.149-3.158 19.284-8.755 26.929-14.872 3.926-3.142 12.138-11.4 12.138-12.208 0-.77-2.198-4.448-4.473-7.483-3.467-4.628-9.217-9.856-14.338-13.038-7.026-4.365-16.058-7.13-24.713-7.567-3.146-.158-3.655-.117-5.954.489l-4.63 1.218c-4.685 1.231-8.454 1.691-14.023 1.712-6.488.023-10.494-.526-17.253-2.368-4.312-1.174-5.427-1.283-9.612-.938-8.93.736-17.15 3.503-24.2 8.144-6.886 4.535-13.45 11.495-17.208 18.246-.71 1.276-.736 1.419-.375 2.108.569 1.091 7.63 8.117 10.837 10.784 8.2 6.818 20.267 13.391 30.56 16.645 11.054 3.495 23.497 4.847 34.66 3.765zm-.896-78.979c4.19-.628 10.429-2.97 14.65-5.499 5.178-3.101 10.942-8.974 14.241-14.507 2.39-4.009 4.368-9.6 5.092-14.4.446-2.954.5-9.407.104-12.35-1.108-8.217-5.47-16.92-11.526-22.99-10.538-10.563-24.234-14.496-39.128-11.235-10.157 2.224-19.532 9.03-25.614 18.592-5.66 8.9-7.545 21.52-4.767 31.916 3.112 11.645 11 21.35 21.718 26.724 3.809 1.909 9.179 3.55 13.029 3.984 2.574.289 9.608.154 12.201-.235z"></path>
  </symbol>
  <symbol xmlns="http://www.w3.org/2000/svg" viewBox="0 0 216.961 217.051" id="arrow1">
    <path d="M101.086 216.906c-18.845-1.698-34.738-6.837-49.417-15.977-7.85-4.887-14.113-9.947-20.974-16.946-11.21-11.434-19.186-24.269-24.809-39.917C3.175 136.519.791 124.643.152 115.49c-.506-7.238.302-20.356 1.696-27.517 1.358-6.98 3.2-13.029 6.486-21.299 2.273-5.721 7.074-14.458 11.215-20.411 8.903-12.8 21.002-23.876 34.745-31.809 3.987-2.301 10.388-5.474 12.793-6.34.8-.29 2.943-1.077 4.762-1.751C79.421 3.556 86.586 1.86 95.926.669 100.29.11 111.38-.19 115.77.13c3.98.29 12.38 1.502 15.875 2.29 9.263 2.088 14.458 3.846 23.283 7.877 11.732 5.359 24.61 14.936 33.915 25.22 4.334 4.79 6.78 7.95 10.505 13.567 3.638 5.487 5.261 8.378 7.758 13.819 4.985 10.86 7.09 18.218 9.253 32.346.541 3.535.607 4.91.602 12.568-.004 6.434-.123 9.631-.47 12.7-1.15 10.145-3.14 18.042-7.136 28.31-1.797 4.619-3.232 7.543-7.658 15.61-.955 1.741-5.473 8.332-7.006 10.22-.842 1.037-2.442 3.002-3.556 4.366-5.186 6.35-16.078 15.913-23.527 20.657-5.01 3.192-14.291 7.976-19.03 9.811-7.86 3.044-18.735 5.881-25.135 6.558-8.128.86-10.925 1.035-15.875.995-2.983-.024-5.9-.086-6.482-.139zm18.388-22.149c6.915-.875 15.788-3.145 21.775-5.57 9.045-3.665 18.833-9.89 25.882-16.46 6.885-6.417 11.139-11.616 15.983-19.533 6.855-11.204 10.837-23.492 12.044-37.166.606-6.87.245-16.391-.832-21.969-1.464-7.58-2.456-11.188-4.586-16.668-6.689-17.217-17.536-30.784-33.022-41.302-7.152-4.858-17.796-9.606-26.264-11.717-8.868-2.21-15.572-2.97-23.961-2.715-10.62.323-19.657 2.076-29.22 5.668-10.071 3.783-20.722 10.612-29.335 18.809-6.89 6.558-14.922 17.961-18.74 26.609-4.76 10.778-7.14 21.45-7.513 33.68-.254 8.367.43 14.499 2.648 23.7 1.765 7.325 6.135 17.58 10.398 24.403 3.784 6.056 9.29 12.72 14.678 17.763 9.28 8.688 21.948 15.894 34.49 19.617 3.548 1.054 11.173 2.608 15.07 3.072 4.148.494 15.853.368 20.505-.22zm-11.81-28.102c-.805-.286-2.363-1.617-5.894-5.037-4.948-4.793-5.959-6.071-6.252-7.906-.338-2.116.208-3.189 3.026-5.942 3.938-3.848 24.415-23.439 26.686-25.532l2.01-1.852-35.455-.133-35.456-.132-1.271-.794c-.888-.554-1.48-1.193-1.964-2.116l-.692-1.323v-7.409c0-7.08.026-7.455.57-8.466.722-1.342 1.54-2.104 2.874-2.677.977-.42 3.618-.455 35.891-.476 19.16-.012 34.908-.094 34.996-.182.087-.087-2.254-2.467-5.203-5.288-2.95-2.82-7.15-6.857-9.335-8.969a1470.35 1470.35 0 00-9.853-9.396c-4.35-4.11-5.993-5.832-6.31-6.614-.555-1.369-.537-3.539.04-4.667.539-1.057 9.033-9.838 10.51-10.865 1.401-.975 2.971-1.176 4.738-.606 1.337.432 2.76 1.804 28.346 27.346 14.817 14.79 27.237 27.392 27.601 28.004.955 1.605 1.117 3.678.402 5.149-.4.822-8.292 8.873-27.882 28.444-23.665 23.642-27.466 27.335-28.383 27.581-1.384.372-2.399.333-3.74-.142z"></path>
  </symbol>
  <symbol xmlns="http://www.w3.org/2000/svg" viewBox="0 0 217.354 217.087" id="arrow2">
    <path d="M99.515 216.91c-10.658-1.187-22.222-3.789-29.501-6.638-2.839-1.112-10.228-4.571-13.097-6.132-19.822-10.787-36.568-28.303-46.041-48.16-5.526-11.583-7.904-19.528-10.03-33.509-.81-5.322-1.014-10.379-.716-17.727.29-7.126.428-8.577 1.398-14.684 2.297-14.458 8.544-29.886 17.365-42.884 12.13-17.872 30.662-32.528 50.592-40.01C83.2 2.018 92.19.31 106.923.048c8.89-.157 11.678.025 19.1 1.247 11.081 1.824 18.158 3.998 29.134 8.951 9.03 4.075 20.336 11.878 28.474 19.651 5.975 5.707 10.934 11.611 15.42 18.358 4.364 6.565 6 9.515 9.025 16.272 4.005 8.945 6.218 16.53 7.955 27.258 1.133 7 1.463 11.805 1.272 18.515-.433 15.236-2.391 24.88-7.979 39.29-3.283 8.469-9.87 19.672-15.882 27.017-4.662 5.694-10.182 11.388-14.287 14.735-8.132 6.63-14.11 10.504-23.284 15.087-10.093 5.042-23.675 8.97-35.057 10.137-4.718.484-18.102.7-21.299.344zm12.972-41.226c1.741-.844 3.479-2.525 31.033-30.03 16.054-16.025 29.775-29.91 30.491-30.856 1.66-2.192 2.196-3.775 2.194-6.482 0-1.562-.16-2.533-.605-3.704-.581-1.527-1.77-2.754-31.2-32.18-34.736-34.731-31.759-32.099-36.226-32.028-3.605.058-4.882.702-8.798 4.44-5.027 4.797-5.553 5.55-6.033 8.646-.36 2.327-.013 4.507 1.058 6.633.648 1.285 1.631 2.403 4.686 5.33a2460.81 2460.81 0 018.779 8.467c2.7 2.62 8.505 8.21 12.898 12.426 4.393 4.214 7.987 7.816 7.987 8.003a.374.374 0 01-.33.37c-.182.015-18.488.053-40.68.084l-40.349.057-1.744.66c-2.824 1.07-5.072 3.261-5.99 5.836-.246.692-.507 2.905-.663 5.635-.377 6.569.134 9.017 2.467 11.804 1.407 1.68 4.134 3.04 6.738 3.36 1.011.124 17.256.194 36.101.155 37.015-.075 44.45.02 44.45.567 0 .185-2.113 2.34-4.696 4.79-2.583 2.45-6.72 6.42-9.194 8.824a883.471 883.471 0 01-8.335 7.978c-9.247 8.7-11.569 11.114-12.406 12.897-.99 2.108-1.25 4.05-.83 6.185.521 2.65 1.405 4.036 4.736 7.43 4.86 4.95 6.341 5.771 10.227 5.663 2.098-.058 2.613-.175 4.234-.96z"></path>
  </symbol>
  <symbol xmlns="http://www.w3.org/2000/svg" viewBox="0 0 252.83 224.589" id="booksmenu">
    <path d="M10.228 224.103c-2.455-.716-4.084-1.676-5.903-3.48-1.691-1.677-2.585-3.132-3.56-5.794-.513-1.4-.544-2.197-.652-16.75L0 182.799l6.966-.043c3.831-.023 16.467-.063 28.08-.087l21.114-.045-.087 15.5c-.084 14.988-.105 15.548-.642 16.967-.956 2.526-1.595 3.555-3.317 5.334-1.805 1.865-3.297 2.746-6.13 3.62-1.765.544-2.243.558-17.99.54-14.59-.017-16.335-.065-17.766-.482zm70.75.117c-4.596-1.267-8.004-4.348-9.685-8.756l-.702-1.84-.101-15.321c-.071-10.799-.017-15.373.185-15.498.249-.153 27.379-.18 48.773-.05l7.092.044-.095 15.28c-.104 16.643-.037 15.878-1.686 19.245-.89 1.819-3.654 4.68-5.348 5.537-.678.343-2.05.876-3.047 1.183-1.767.545-2.237.559-17.992.536-12.192-.018-16.478-.107-17.395-.36zm97.462-.126c-2.8-.954-5.355-3.371-6.514-6.163-.38-.914-1.236-3.805-1.903-6.424-.668-2.62-2.091-8.216-3.164-12.436a2546.334 2546.334 0 00-4.726-18.388c-.513-1.965-1.883-7.323-3.043-11.907a4103.927 4103.927 0 00-5.893-23.018c-2.05-7.922-2.92-11.323-5.152-20.109a2432.418 2432.418 0 00-2.875-11.244c-1.287-4.9-4.177-16.155-8.457-32.941a5262.14 5262.14 0 00-3.73-14.552c-.66-2.547-2.33-9.081-3.71-14.521-1.38-5.44-2.573-9.995-2.65-10.12-.079-.128-12.659-.23-28.188-.23H70.39l.09-15.544c.089-15.04.11-15.592.647-17 1.447-3.787 3.782-6.46 7.039-8.06C81.085.004 82.298-.075 99.923.034c14.492.089 15.704.131 16.932.593 2.794 1.05 5.047 2.634 6.52 4.584 2.11 2.795 3.124 6.047 3.132 10.04.003 1.201.087 2.184.186 2.184.1 0 .682-.243 1.294-.539.611-.296 2.643-.968 4.515-1.492 5.139-1.44 8.216-1.316 11.785.476.916.46 1.136.466 3.704.103 3.02-.426 5.084-.799 6.535-1.181.527-.139 1.97-.507 3.207-.817 6.721-1.688 14.592-4.208 16.965-5.431.38-.197 1.08-.96 1.553-1.698 1.058-1.65 3.189-3.506 4.833-4.21 1.903-.816 7.804-2.368 9.722-2.557 3.222-.319 6.728.832 8.775 2.879 1.177 1.176 2.447 3.249 2.948 4.81.428 1.33 2.327 8.282 4.41 16.139l2.279 8.599c.636 2.401 1.325 4.96 1.53 5.689.206.727.878 3.227 1.494 5.556.617 2.328 2.118 7.924 3.336 12.435s2.559 9.512 2.98 11.113l1.878 7.143a361.56 361.56 0 001.459 5.424c.19.655 1.025 3.75 1.854 6.88.83 3.128 2.314 8.665 3.299 12.303.984 3.638 2.15 7.984 2.589 9.657a4205.914 4205.914 0 005.62 21.034c.982 3.638 2.17 8.103 2.643 9.922.472 1.82 1.03 3.903 1.24 4.63.486 1.69.503 1.753 2.863 10.716a1366.1 1366.1 0 002.246 8.467c.144.51.98 3.605 1.858 6.879.878 3.274 1.713 6.37 1.856 6.88.143.508.618 2.294 1.054 3.968 2.019 7.735 2.992 11.347 3.385 12.568.276.853.427 2.261.428 3.968 0 2.442-.064 2.782-.852 4.412-.907 1.873-2.487 3.69-4.183 4.81-1.03.679-6.963 2.5-10.103 3.1-2.294.44-4.485.153-7.037-.92-2.346-.987-1.839-.975-7.173-.167-5.065.766-16.244 3.864-21.623 5.992-2.936 1.161-3.146 1.295-3.91 2.486-1.052 1.64-3.433 3.88-4.693 4.415-1 .425-4.048 1.297-7.742 2.216-2.49.62-5.26.62-7.074.002zm19.113-33.605c2.834-.801 4.125-1.158 5.291-1.463 1.202-.314 3.58-.95 7.938-2.124a803.466 803.466 0 018.82-2.33c1.348-.335 1.345-.054.052-4.815a548.778 548.778 0 01-1.205-4.498 1445.13 1445.13 0 00-2.243-8.467c-.516-1.924-1.616-6.062-2.269-8.534a511.76 511.76 0 00-1.557-5.753c-.242-.874-.722-2.66-1.068-3.97-.868-3.29-2.124-7.984-2.939-10.98a426.722 426.722 0 01-1.025-3.836c-.189-.727-.663-2.513-1.054-3.969a1155.32 1155.32 0 01-1.51-5.688 886.17 886.17 0 00-1.155-4.366c-.196-.727-.547-2.037-.78-2.91a371.41 371.41 0 00-.786-2.91c-.4-1.451-2.007-7.436-2.894-10.782-.9-3.39-2.082-7.806-2.286-8.533a199.41 199.41 0 01-.606-2.25c-.211-.8-.704-2.645-1.096-4.1-.391-1.455-1.07-4.015-1.51-5.689a844.789 844.789 0 00-1.953-7.342 265.09 265.09 0 01-.78-2.976c-.202-.8-.685-2.587-1.074-3.97a338.67 338.67 0 01-1.073-3.902 925.58 925.58 0 00-.739-2.778c-.205-.764-.732-2.758-1.171-4.432-.715-2.723-1.46-5.528-2.583-9.723-.204-.764-.536-2.014-.738-2.778-1.158-4.382-2.44-9.096-2.771-10.178-.464-1.52-.133-1.474-3.742-.518a1001.37 1001.37 0 00-8.599 2.308c-.744.214-1.895.526-5.225 1.417l-4.035 1.08c-1.455.39-3.261.865-4.013 1.055-.753.19-1.508.433-1.679.538-.351.217-.36.172.792 4.496.465 1.746 1 3.77 1.189 4.498.355 1.368 1.486 5.545 2.685 9.922.38 1.382.847 3.109 1.04 3.836l.743 2.779c.214.8.686 2.586 1.047 3.968.362 1.383.902 3.412 1.2 4.51.473 1.744 1.513 5.635 2.153 8.058.116.437.413 1.508.662 2.381.249.873.608 2.183.798 2.91.19.728.663 2.514 1.052 3.97.389 1.455.926 3.479 1.193 4.497a408.4 408.4 0 00.921 3.44c1 3.65 2.16 8.001 3.14 11.774.358 1.382.915 3.466 1.237 4.63.323 1.164.68 2.474.793 2.91.285 1.09 1.706 6.344 2.542 9.393.379 1.383.854 3.139 1.056 3.903a1352.256 1352.256 0 011.91 7.21c.875 3.329 2.007 7.584 2.571 9.657.198.728.831 3.109 1.407 5.292a503.922 503.922 0 001.494 5.556c.245.873.613 2.212.817 2.976l.74 2.779c.204.764.568 2.103.81 2.976a867.994 867.994 0 012.173 8.07c.21.8.56 2.11.777 2.91.217.8.56 2.11.761 2.91.202.801.48 1.873.618 2.382l.967 3.57c.394 1.454.765 2.723.825 2.82.097.157 1.602-.155 3.944-.817zM.04 112.706c0-30.693.072-55.993.16-56.224.146-.378 2.863-.418 28.047-.418h27.885v112.448H.04zm70.38-.418V56.064h56.091v112.448H70.42zM.143 41.663c-.08-.208-.093-7.143-.03-15.412.11-14.523.132-15.087.676-16.58C2.39 5.28 5.32 2.265 9.52.69 10.98.143 11.475.124 26.854.033c10.745-.064 16.44 0 17.725.2 4.923.763 8.935 4.156 10.82 9.153.584 1.546.593 1.767.675 17.11l.084 15.545H28.223c-23.958 0-27.954-.054-28.079-.378z"></path>
  </symbol>
  <symbol xmlns="http://www.w3.org/2000/svg" viewBox="0 0 223.334 223.386" id="guitar">
    <path d="M59.793 222.981c-7.676-1.297-10.931-2.207-16.207-4.531-11.451-5.044-21.377-12.69-28.743-22.14-3.995-5.125-7.722-11.198-9.682-15.776-2.134-4.985-4.003-11.456-4.814-16.668-.455-2.924-.465-13.172-.015-15.99 1.586-9.942 5.62-18.105 12.233-24.746 4.124-4.143 6.697-5.966 11.95-8.467 4.487-2.137 7.696-3.056 14.376-4.119 5.58-.887 7.809-1.719 11.416-4.259 2.047-1.441 4.83-4.472 6.162-6.713.563-.946 1.581-3.203 2.264-5.015 2.665-7.083 5.35-11.07 10.414-15.464 3.22-2.794 5.312-4.143 9.028-5.823 2.48-1.121 3.643-1.502 7.547-2.47 2.308-.573 3.407-.672 8.599-.778 5.839-.119 6.027-.106 9.79.68 5.049 1.056 6.28 1.416 9.173 2.684 3.236 1.417 6.115 2.968 8.684 4.678l2.114 1.407 16.692-16.739 16.69-16.738 2.87-8.6c2.026-6.07 3.181-9.12 3.93-10.375.831-1.393 3.53-4.238 12.456-13.133C188.607 2.041 188.704 1.959 192.38.583c1.935-.723 6.173-.785 8.171-.12 3.461 1.154 3.875 1.487 12.353 9.934 7.593 7.565 8.181 8.218 9.06 10.07 2.244 4.728 1.682 10.965-1.321 14.638-.375.46-5.753 5.92-11.95 12.135-9.78 9.807-11.503 11.423-13.05 12.236-.98.515-5.498 2.18-10.04 3.698-4.542 1.52-8.335 2.83-8.429 2.914-.094.083-7.628 7.603-16.741 16.711l-16.57 16.56 1.404 2.04c1.368 1.984 3.932 6.748 5.07 9.418.86 2.017 1.587 4.59 2.342 8.286.594 2.908.69 4.078.723 8.78.038 5.524-.032 6.154-1.294 11.641-.776 3.373-2.868 7.986-5.218 11.51-.583.872-2.44 2.956-4.127 4.63-4.438 4.402-8.147 6.859-13.12 8.689-5.334 1.962-7.84 3.515-10.889 6.747-3.676 3.897-5.3 7.775-6.06 14.461-.451 3.962-2.102 9.53-3.99 13.452-2.414 5.017-4.417 7.814-8.511 11.888-6.133 6.103-14.31 10.205-23.864 11.974-3.402.63-13.073.692-16.536.106zm35.106-69.838c4.919-1.026 8.914-3.472 12.09-7.401 2.76-3.414 4.182-7.237 4.427-11.907.221-4.21-.333-6.9-2.2-10.69-.997-2.022-1.651-2.919-3.497-4.798-3.61-3.676-6.219-5.111-11.093-6.102-3.006-.61-4.596-.63-7.486-.088-4.848.908-7.657 2.343-11.307 5.774-1.843 1.733-4.083 5.339-4.89 7.873-3.928 12.335 2.992 24.598 15.44 27.365 2.07.46 6.247.447 8.516-.026z"></path>
  </symbol>
  <symbol xmlns="http://www.w3.org/2000/svg" viewBox="0 0 178.664 156.34" id="hearthbeat">
    <path d="M88.02 156.21c-1.927-.626-.409.864-33.994-33.369-3.355-3.42-8.3-8.476-10.989-11.236s-7.572-7.761-10.853-11.113c-3.28-3.351-6.96-7.134-8.18-8.407l-2.218-2.313 16.115-.068 16.115-.068.383-.794c.211-.436 2.49-5.849 5.065-12.028 2.575-6.178 4.785-11.266 4.912-11.305.127-.04.908 1.444 1.736 3.296a5185.7 5185.7 0 004.664 10.38c1.737 3.856 4.55 10.107 6.252 13.89 1.701 3.784 3.994 8.878 5.094 11.32 1.1 2.441 2.331 4.896 2.736 5.454 2.018 2.786 6.564 2.877 8.932.18.5-.57 4.492-8.236 9.39-18.034 4.686-9.374 8.61-17.043 8.719-17.043.109 0 1.759 3.125 3.667 6.945 1.907 3.82 3.653 7.154 3.878 7.408.383.433 1.624.463 18.912.463 11.388 0 18.468.096 18.414.248-.049.136-7.771 8.084-17.161 17.661-9.39 9.577-23.678 24.174-31.75 32.437-10.016 10.252-15.018 15.188-15.749 15.542-1.249.604-3.143.86-4.09.554zm.675-66.243c-1.723-3.756-10.986-24.295-15.11-33.502-3.598-8.037-4.35-9.52-5.328-10.497-1.383-1.384-2.552-1.803-4.606-1.655a5.778 5.778 0 00-4.359 2.517c-.308.457-2.95 6.584-5.872 13.616a9771.725 9771.725 0 01-6.284 15.1l-.971 2.316-17.634-.004c-9.7-.002-17.755-.092-17.901-.198-.9-.659-4.328-6.047-6.015-9.455C.225 59.329-1.132 47.958.97 37.645c2.616-12.831 11.583-25.107 23.155-31.7C37.321-1.573 54.276-1.994 67.382 4.87c5.884 3.083 9.004 5.618 16.805 13.658 2.6 2.68 4.894 4.829 5.154 4.829.26 0 3.226-2.775 6.652-6.222 5.996-6.032 8.554-8.214 12.522-10.679 4.654-2.891 11.39-5.27 17.343-6.123 3.082-.442 9.606-.392 12.964.099 9.836 1.44 19.352 6.381 26.255 13.635 7.23 7.597 11.213 15.262 13.078 25.165.681 3.62.678 13.726-.005 16.933-1.711 8.027-4.422 14.178-8.95 20.309l-1.028 1.39-20.694-.068-20.694-.067-4.835-9.64c-2.66-5.303-5.146-10.049-5.525-10.547-.812-1.063-3.01-2.165-4.325-2.167-1.541-.002-2.891.51-4.008 1.52-.894.806-2.404 3.642-9.573 17.973-4.681 9.358-8.608 17.015-8.727 17.016-.119 0-.612-.863-1.096-1.918z"></path>
  </symbol>
  <symbol xmlns="http://www.w3.org/2000/svg" viewBox="0 0 178.806 238.488" id="logohiking">
    <path d="M47.472 237.832c-6.726-2.197-11.11-9.288-10.081-16.305.117-.8.448-2.408.734-3.572 1.243-5.054 2.124-8.58 8.665-34.652 3.795-15.13 6.9-27.57 6.9-27.648 0-.077 5.536 5.396 12.303 12.162 6.767 6.765 12.301 12.48 12.299 12.699-.002.218-.49 2.302-1.082 4.63-.593 2.33-1.17 4.65-1.284 5.16-.114.51-.691 2.831-1.283 5.16-1.53 6.016-1.811 7.133-5.05 20.108-1.6 6.403-3.149 12.335-3.444 13.182-1.448 4.15-4.989 7.607-9.282 9.06-2.632.89-6.695.897-9.395.016zm66.957-.082c-4.576-1.643-7.796-4.95-9.224-9.476-.89-2.82-.98-5.03-.98-24.186V185.03l-20.67-20.764c-11.368-11.42-20.967-21.201-21.33-21.735-1.84-2.71-2.92-6.83-2.551-9.749.223-1.772 13.098-53.228 13.874-55.453 2.701-7.737 9.737-14.262 18.167-16.85 2.157-.662 2.675-.714 7.219-.726 5.463-.015 6.689.199 10.79 1.884 4.75 1.953 6.263 3.225 18.974 15.947l11.64 11.651h16.275v-4.3c0-3.576.085-4.52.501-5.617.701-1.846 1.886-3.146 3.664-4.019l1.524-.748h5.556c5.551 0 5.557 0 7.066.742 1.406.69 2.339 1.616 3.385 3.359.35.583.405 9.744.469 77.39.066 71.025.04 76.816-.368 77.895-.58 1.533-2.014 3.088-3.581 3.882-1.222.62-1.458.641-6.97.641-6.506 0-6.783-.062-8.85-1.997-.906-.846-1.49-1.686-1.858-2.671-.535-1.428-.538-1.79-.538-57.875v-56.438l-6.284-.181a449.2 449.2 0 00-11.972-.162c-7.034.025-7.954-.127-11.432-1.882-1.302-.658-2.834-2.012-7.541-6.665-3.38-3.341-6-5.735-6.122-5.593-.118.136-.905 3.045-1.747 6.464-.843 3.42-1.933 7.766-2.423 9.658-.49 1.891-1.843 7.287-3.006 11.989-1.163 4.702-2.179 8.653-2.257 8.78-.078.126 4.95 5.33 11.173 11.564 6.224 6.234 11.862 11.987 12.53 12.784 2.299 2.748 4.72 7.35 5.566 10.577.992 3.786 1.025 4.654 1.025 27.29 0 21.395-.017 22.189-.53 23.847-.793 2.57-1.74 4.09-3.864 6.199-3.148 3.126-6.16 4.33-10.728 4.286-2.203-.02-3.095-.154-4.572-.684zM35.566 134.033c-.528-.12-4.062-.97-12.303-2.962-2.401-.58-5.913-1.428-7.805-1.883-6.853-1.65-10.598-2.602-11.31-2.879-1.213-.472-3.015-2.344-3.63-3.771-.984-2.29-.737-3.936 2.24-14.914.237-.873.53-2.064.65-2.646.202-.975.839-3.46 3.356-13.097 1.041-3.986 1.761-6.769 3.902-15.081 2.227-8.648 3.486-11.707 6.731-16.354.641-.917 2.134-2.692 3.318-3.943 5.914-6.252 12.44-9.682 22.127-11.631 5.063-1.019 13.834-.336 17.128 1.333 1.256.637 2.78 2.182 3.477 3.53.692 1.333.657 3.55-.103 6.437-.4 1.523-.816 3.185-.924 3.695-.109.509-.698 2.83-1.31 5.159-.612 2.328-1.526 5.84-2.03 7.805-.506 1.965-1.5 5.834-2.21 8.6-1.191 4.638-1.812 7.01-3.22 12.302-.29 1.092-1.345 5.2-2.345 9.128-1 3.93-2.302 8.99-2.894 11.245-.592 2.256-1.683 6.48-2.424 9.388-.742 2.908-1.588 5.797-1.88 6.42-1.403 2.984-5.286 4.857-8.54 4.12zm73.843-89.556c-2.638-.3-6.353-1.506-8.766-2.847-2.247-1.248-5.279-3.996-6.87-6.227-5.548-7.774-5.775-17.879-.575-25.543 3.11-4.583 7.006-7.469 12.35-9.148 2.014-.633 2.664-.707 6.218-.712 3.586-.005 4.198.065 6.35.723 5.45 1.667 9.314 4.538 12.476 9.27 3.872 5.793 4.628 13.767 1.962 20.681-2.76 7.158-10.323 13-17.745 13.708-.946.09-2.077.202-2.514.248-.436.047-1.735-.023-2.886-.153z"></path>
  </symbol>
</svg>